<svg width="76" height="68" viewBox="0 0 76 68" fill="none" xmlns="http://www.w3.org/2000/svg">
<path d="M75.6293 64.2617L39.5401 1.75433C39.2208 1.20061 38.63 0.860168 37.9914 0.860168C37.3528 0.860168 36.7618 1.20081 36.4424 1.75433L0.23958 64.457C-0.0799415 65.0107 -0.0799415 65.6922 0.23958 66.2459C0.558895 66.7997 1.14969 67.1401 1.78853 67.1401H74.1934C74.1992 67.1401 74.2052 67.1401 74.2112 67.1401C75.199 67.1401 76 66.3401 76 65.3511C76 64.9407 75.8615 64.5638 75.6293 64.2617ZM4.88683 63.5628L37.9914 6.22579L71.0958 63.5628H4.88683Z" fill="#BB6BD9"/>
<path d="M35.9999 24.6519V48.3479C35.9999 49.2608 36.8953 50 38.0001 50C39.1045 50 39.9999 49.2612 39.9999 48.3479V24.6519C39.9999 23.7404 39.1045 23 38.0001 23C36.8953 23.0002 35.9999 23.7406 35.9999 24.6519Z" fill="#BB6BD9"/>
<path d="M37.9999 54C36.8956 54 35.9999 54.8951 35.9999 55.9993C35.9999 57.1036 36.8956 58 37.9999 58C39.1041 58 39.9999 57.1033 39.9999 55.9993C39.9999 54.8951 39.1043 54 37.9999 54Z" fill="#BB6BD9"/>
</svg>
